<?xml version="1.0" encoding="UTF-8" standalone="no"?>
<svg
   xmlns:osb="http://www.openswatchbook.org/uri/2009/osb"
   xmlns:dc="http://purl.org/dc/elements/1.1/"
   xmlns:cc="http://creativecommons.org/ns#"
   xmlns:rdf="http://www.w3.org/1999/02/22-rdf-syntax-ns#"
   xmlns:svg="http://www.w3.org/2000/svg"
   xmlns="http://www.w3.org/2000/svg"
   xmlns:xlink="http://www.w3.org/1999/xlink"
   xmlns:sodipodi="http://sodipodi.sourceforge.net/DTD/sodipodi-0.dtd"
   xmlns:inkscape="http://www.inkscape.org/namespaces/inkscape"
   version="1.1"
   x="0px"
   y="0px"
   width="340px"
   height="340px"
   viewBox="-45.029 -48.654 340 340"
   overflow="visible"
   enable-background="new -45.029 -48.654 340 340"
   xml:space="preserve"
   id="svg118"
   sodipodi:docname="VGP_Logo_WhiteonTransparent.svg"
   inkscape:version="1.0.1 (3bc2e813f5, 2020-09-07)"><metadata
   id="metadata122"><rdf:RDF><cc:Work
       rdf:about=""><dc:format>image/svg+xml</dc:format><dc:type
         rdf:resource="http://purl.org/dc/dcmitype/StillImage" /></cc:Work></rdf:RDF></metadata><sodipodi:namedview
   pagecolor="#ffffff"
   bordercolor="#666666"
   borderopacity="1"
   objecttolerance="10"
   gridtolerance="10"
   guidetolerance="10"
   inkscape:pageopacity="0"
   inkscape:pageshadow="2"
   inkscape:window-width="1920"
   inkscape:window-height="986"
   id="namedview120"
   showgrid="false"
   inkscape:zoom="2.3529412"
   inkscape:cx="170"
   inkscape:cy="136"
   inkscape:window-x="-11"
   inkscape:window-y="-11"
   inkscape:window-maximized="1"
   inkscape:current-layer="svg118"
   inkscape:document-rotation="0" />
<defs
   id="defs2"><linearGradient
   inkscape:collect="always"
   id="linearGradient2861"><stop
     style="stop-color:#ffffff;stop-opacity:1;"
     offset="0"
     id="stop3129" /><stop
     style="stop-color:#ffffff;stop-opacity:0;"
     offset="1"
     id="stop3131" /></linearGradient><linearGradient
   inkscape:collect="always"
   id="linearGradient902-7"
   osb:paint="gradient"><stop
     style="stop-color:#000000;stop-opacity:1;"
     offset="0"
     id="stop898" /><stop
     style="stop-color:#000000;stop-opacity:0;"
     offset="1"
     id="stop900" /></linearGradient>
<radialGradient
   inkscape:collect="always"
   xlink:href="#linearGradient2861"
   id="radialGradient2863"
   cx="124.796"
   cy="118.07101"
   fx="124.796"
   fy="118.07101"
   r="131.09985"
   gradientTransform="matrix(1.1491419,6.8028817e-4,-6.5341683e-4,1.1037303,-18.535172,-12.332441)"
   gradientUnits="userSpaceOnUse" /></defs>
<ellipse
   style="fill:url(#radialGradient2863);fill-opacity:1;fill-rule:nonzero;stroke:#000000;stroke-width:0.358;stroke-linejoin:round;stroke-miterlimit:4;stroke-dasharray:none;stroke-opacity:0;opacity:1"
   id="path886"
   cx="124.796"
   cy="118.07101"
   rx="130.92085"
   ry="129.64587" /><path
   fill="#FFFFFF"
   d="M38.33,162.399l0.475,0.918c0.092,0.178,0.043,0.363-0.146,0.559l-20.053,19.742  c-0.189,0.195-0.346,0.178-0.463-0.051l-0.295-0.574c-0.092-0.178-0.045-0.365,0.146-0.559l18.932-18.631l-0.078-0.154  l-26.152,4.648c-0.27,0.041-0.449-0.027-0.543-0.205l-0.295-0.574c-0.117-0.229-0.043-0.363,0.225-0.406l27.707-4.918  C38.059,162.153,38.238,162.222,38.33,162.399z"
   id="path4"
   style="fill:#000000;fill-opacity:1;stroke:#000000;stroke-opacity:1;stroke-linejoin:round;fill-rule:nonzero" />
<path
   fill="#FFFFFF"
   d="M33.01,151.13l0.15,0.582c0.062,0.25-0.041,0.367-0.312,0.348l-28.273-2.094  c-0.271-0.02-0.432-0.127-0.48-0.322l-0.256-0.998c-0.049-0.195,0.039-0.365,0.268-0.514l23.801-15.404  c0.23-0.146,0.377-0.096,0.439,0.154l0.16,0.625c0.049,0.195-0.039,0.365-0.268,0.514l-6.6,4.393l2.982,11.666l7.898,0.688  C32.797,150.815,32.961,150.937,33.01,151.13z M5.57,148.823l17.684,1.117l-2.748-10.748l-14.979,9.465L5.57,148.823z"
   id="path6"
   style="fill:#000000;fill-opacity:1;stroke:#000000;stroke-opacity:1;stroke-linejoin:round;fill-rule:nonzero" />
<path
   fill="#FFFFFF"
   d="M27.754,126.31l0.004,0.602c0.002,0.23-0.125,0.344-0.385,0.346L0.5,127.438  c-0.258,0-0.389-0.113-0.389-0.342l-0.006-0.604c0-0.143,0.057-0.242,0.17-0.301l24.285-14.568l-0.002-0.172l-24.164,0.16  c-0.26,0.004-0.389-0.111-0.389-0.34L0,110.671c-0.002-0.23,0.127-0.346,0.385-0.348l26.875-0.18  c0.258-0.002,0.387,0.113,0.389,0.342l0.002,0.43c0.002,0.201-0.111,0.373-0.34,0.518L3.113,125.958v0.172l24.252-0.162  C27.623,125.966,27.754,126.079,27.754,126.31z"
   id="path8"
   style="fill:#000000;fill-opacity:1;stroke:#000000;stroke-opacity:1;stroke-linejoin:round;fill-rule:nonzero" />
<path
   fill="#FFFFFF"
   d="M2.35,96.288l26.486,4.555c0.256,0.043,0.363,0.178,0.324,0.404l-0.104,0.594  c-0.037,0.227-0.186,0.316-0.439,0.273L2.131,97.56c-0.254-0.045-0.361-0.178-0.322-0.404l0.102-0.594  C1.949,96.337,2.096,96.245,2.35,96.288z"
   id="path10"
   style="fill:#000000;fill-opacity:1;stroke:#000000;stroke-opacity:1;stroke-linejoin:round;fill-rule:nonzero" />
<path
   fill="#FFFFFF"
   d="M25.125,90.942l-1.617-0.584c-0.244-0.088-0.326-0.238-0.248-0.455l0.205-0.566  c0.076-0.215,0.238-0.279,0.48-0.191l1.578,0.568c1.375,0.498,2.584,0.523,3.629,0.078s1.811-1.342,2.297-2.691l1.754-4.852  c0.488-1.348,0.473-2.527-0.047-3.539c-0.52-1.01-1.467-1.764-2.842-2.26l-2.021-0.73c-1.268-0.459-2.451-0.322-3.553,0.406  c-1.102,0.73-2.076,1.742-2.926,3.037c-0.848,1.293-1.697,2.586-2.545,3.881c-0.848,1.293-1.844,2.297-2.986,3.012  c-1.143,0.717-2.387,0.83-3.734,0.342l-2.428-0.877c-1.672-0.604-2.828-1.576-3.471-2.922c-0.643-1.344-0.666-2.84-0.072-4.482  l1.754-4.854c0.594-1.645,1.568-2.779,2.92-3.402c1.354-0.625,2.867-0.633,4.539-0.029l1.213,0.438  c0.242,0.088,0.324,0.24,0.246,0.455l-0.203,0.566c-0.078,0.217-0.24,0.279-0.482,0.191l-1.172-0.424  c-1.375-0.496-2.584-0.521-3.631-0.076c-1.045,0.445-1.811,1.342-2.297,2.689l-1.754,4.854c-0.486,1.348-0.471,2.527,0.049,3.537  c0.518,1.012,1.465,1.764,2.84,2.262l2.346,0.848c1.996,0.721,3.984-0.48,5.965-3.605c0.814-1.322,1.658-2.625,2.533-3.908  c0.877-1.285,1.932-2.266,3.168-2.947s2.584-0.76,4.039-0.232l2.143,0.773c1.672,0.604,2.83,1.578,3.473,2.924  c0.641,1.344,0.664,2.838,0.07,4.482l-1.754,4.854c-0.594,1.645-1.566,2.779-2.92,3.402C28.309,91.538,26.797,91.546,25.125,90.942z  "
   id="path12"
   style="fill:#000000;fill-opacity:1;stroke:#000000;stroke-opacity:1;stroke-linejoin:round;fill-rule:nonzero" />
<path
   fill="#FFFFFF"
   d="M40.443,69.415l-0.34,0.496c-0.129,0.191-0.301,0.211-0.514,0.066L17.396,54.819  c-0.213-0.145-0.254-0.312-0.125-0.502l0.34-0.496c0.129-0.189,0.301-0.211,0.514-0.066l10.084,6.887  c0.189,0.131,0.357,0.088,0.504-0.125l7.518-11.008c0.145-0.213,0.123-0.383-0.066-0.514L26.08,42.108  c-0.213-0.146-0.256-0.312-0.125-0.504l0.338-0.496c0.131-0.189,0.301-0.211,0.516-0.064L49,56.2  c0.213,0.146,0.256,0.312,0.127,0.504l-0.34,0.496c-0.131,0.189-0.303,0.211-0.516,0.064l-10.545-7.201  c-0.189-0.131-0.357-0.088-0.502,0.125l-7.518,11.008c-0.146,0.213-0.125,0.385,0.064,0.514l10.547,7.203  C40.531,69.058,40.572,69.226,40.443,69.415z"
   id="path14"
   style="fill:#000000;fill-opacity:1;stroke:#000000;stroke-opacity:1;stroke-linejoin:round;fill-rule:nonzero" />
<path
   fill="#FFFFFF"
   d="M36.301,30.653l19.256,18.748c0.186,0.18,0.197,0.352,0.037,0.518l-0.418,0.432  c-0.162,0.164-0.334,0.156-0.518-0.025L35.4,31.579c-0.184-0.182-0.197-0.352-0.037-0.518l0.42-0.43  C35.943,30.466,36.115,30.474,36.301,30.653z"
   id="path16"
   style="fill:#000000;fill-opacity:1;stroke:#000000;stroke-opacity:1;stroke-linejoin:round;fill-rule:nonzero" />
<path
   fill="#FFFFFF"
   d="M62.248,43.341l-0.488,0.35c-0.188,0.133-0.355,0.096-0.506-0.115L45.627,21.712  c-0.15-0.209-0.133-0.381,0.055-0.514l0.49-0.352c0.115-0.082,0.23-0.094,0.344-0.035l25.896,11.459l0.141-0.1L58.5,12.511  c-0.15-0.211-0.133-0.381,0.055-0.516l0.49-0.35c0.186-0.133,0.355-0.096,0.504,0.113l15.629,21.865  c0.15,0.209,0.131,0.381-0.055,0.514l-0.35,0.252c-0.164,0.115-0.371,0.123-0.621,0.02L48.342,22.995l-0.141,0.1l14.104,19.73  C62.453,43.036,62.436,43.208,62.248,43.341z"
   id="path18"
   style="fill:#000000;fill-opacity:1;stroke:#000000;stroke-opacity:1;stroke-linejoin:round;fill-rule:nonzero" />
<path
   fill="#FFFFFF"
   d="M91.816,26.61l-4.408,1.715c-1.631,0.635-3.125,0.648-4.484,0.039c-1.361-0.607-2.363-1.74-3.008-3.396  l-5.789-14.865c-0.645-1.656-0.674-3.168-0.082-4.537c0.59-1.367,1.699-2.369,3.33-3.004l4.406-1.717  c1.631-0.633,3.125-0.646,4.484-0.039c1.361,0.609,2.363,1.742,3.008,3.398l0.781,2.004c0.092,0.24,0.033,0.402-0.182,0.484  l-0.561,0.219c-0.215,0.084-0.367,0.004-0.461-0.236l-0.764-1.963c-0.531-1.361-1.309-2.291-2.33-2.785  c-1.023-0.492-2.203-0.48-3.539,0.041l-4.408,1.715c-1.336,0.521-2.213,1.309-2.631,2.365c-0.42,1.055-0.365,2.264,0.164,3.625  l5.76,14.787c0.529,1.361,1.307,2.289,2.33,2.783c1.021,0.494,2.201,0.48,3.537-0.039l4.408-1.717  c1.334-0.52,2.213-1.307,2.631-2.363c0.422-1.055,0.365-2.264-0.166-3.627l-2.355-6.051c-0.082-0.213-0.244-0.273-0.486-0.18  l-5.168,2.014c-0.24,0.094-0.402,0.033-0.484-0.18l-0.189-0.482c-0.082-0.213-0.004-0.367,0.236-0.461l6.012-2.34  c0.48-0.188,0.82-0.027,1.018,0.48l2.637,6.771c0.645,1.656,0.672,3.168,0.082,4.537C94.555,24.974,93.443,25.976,91.816,26.61z"
   id="path20"
   style="fill:#000000;fill-opacity:1;stroke:#000000;stroke-opacity:1;stroke-linejoin:round;fill-rule:nonzero" />
<path
   fill="#FFFFFF"
   d="M161.863,27.989l-4.42-1.686c-1.633-0.623-2.752-1.615-3.35-2.979c-0.602-1.365-0.584-2.877,0.049-4.537  l5.682-14.908c0.633-1.66,1.627-2.799,2.982-3.418s2.852-0.615,4.484,0.006l4.42,1.686c1.635,0.623,2.75,1.615,3.352,2.98  c0.6,1.363,0.584,2.877-0.051,4.537l-0.766,2.008c-0.092,0.24-0.244,0.32-0.459,0.238l-0.562-0.213  c-0.215-0.082-0.275-0.244-0.184-0.484l0.75-1.969c0.521-1.367,0.568-2.574,0.141-3.629c-0.428-1.051-1.311-1.834-2.648-2.344  l-4.42-1.686c-1.34-0.51-2.52-0.514-3.537-0.014c-1.021,0.502-1.791,1.436-2.312,2.801l-5.65,14.826  c-0.521,1.367-0.568,2.576-0.141,3.629s1.311,1.834,2.65,2.344l4.418,1.686c1.34,0.51,2.52,0.516,3.539,0.014  c1.02-0.5,1.789-1.436,2.311-2.801l2.312-6.068c0.082-0.213,0.002-0.365-0.238-0.457l-5.186-1.977  c-0.24-0.092-0.32-0.244-0.238-0.459l0.184-0.482c0.082-0.215,0.244-0.275,0.484-0.184l6.027,2.297  c0.482,0.184,0.627,0.531,0.432,1.039l-2.588,6.791c-0.633,1.66-1.627,2.801-2.982,3.418  C164.992,28.614,163.498,28.612,161.863,27.989z"
   id="path22"
   style="fill:#000000;fill-opacity:1;stroke:#000000;stroke-opacity:1;stroke-linejoin:round;fill-rule:nonzero" />
<path
   fill="#FFFFFF"
   d="M185.344,41.339l-11.297-7.475c-0.191-0.127-0.215-0.297-0.072-0.512l14.828-22.414  c0.143-0.215,0.309-0.26,0.5-0.133l0.502,0.332c0.191,0.127,0.215,0.297,0.072,0.512l-14.139,21.375  c-0.127,0.191-0.082,0.357,0.133,0.5l10.186,6.738c0.215,0.143,0.258,0.309,0.133,0.5l-0.334,0.502  C185.73,41.456,185.559,41.481,185.344,41.339z"
   id="path24"
   style="fill:#000000;fill-opacity:1;stroke:#000000;stroke-opacity:1;stroke-linejoin:round;fill-rule:nonzero" />
<path
   fill="#FFFFFF"
   d="M188.535,43.821l-0.42-0.432c-0.18-0.186-0.148-0.336,0.098-0.455l25.559-12.268  c0.246-0.117,0.438-0.105,0.578,0.039l0.719,0.74c0.141,0.143,0.148,0.336,0.023,0.578l-12.967,25.211  c-0.125,0.242-0.277,0.271-0.457,0.086l-0.451-0.463c-0.139-0.145-0.146-0.336-0.021-0.578l3.535-7.098l-8.396-8.629l-7.193,3.336  C188.877,43.987,188.676,43.966,188.535,43.821z M213.479,32.153l-15.891,7.84l7.736,7.951l8.275-15.668L213.479,32.153z"
   id="path26"
   style="fill:#000000;fill-opacity:1;stroke:#000000;stroke-opacity:1;stroke-linejoin:round;fill-rule:nonzero" />
<path
   fill="#FFFFFF"
   d="M210.455,71.351l-2.838-4.816c-0.887-1.506-1.141-2.98-0.758-4.42c0.381-1.439,1.34-2.611,2.871-3.512  l13.742-8.102c1.531-0.902,3.02-1.172,4.465-0.809c1.445,0.361,2.611,1.297,3.5,2.803l2.838,4.816  c0.889,1.506,1.139,2.979,0.76,4.42c-0.385,1.439-1.34,2.611-2.871,3.514l-1.854,1.09c-0.223,0.133-0.391,0.1-0.508-0.098  l-0.305-0.52c-0.117-0.197-0.064-0.361,0.158-0.492l1.816-1.07c1.258-0.742,2.051-1.658,2.373-2.748  c0.322-1.088,0.119-2.25-0.607-3.484l-2.838-4.816c-0.729-1.234-1.646-1.975-2.756-2.219s-2.293,0.004-3.553,0.746l-13.67,8.057  c-1.26,0.742-2.051,1.658-2.373,2.746c-0.324,1.09-0.121,2.252,0.607,3.486l2.836,4.816c0.729,1.234,1.646,1.975,2.758,2.219  c1.107,0.244,2.293-0.004,3.553-0.746l1.814-1.07c0.223-0.131,0.391-0.098,0.508,0.1l0.307,0.52c0.115,0.197,0.062,0.361-0.16,0.492  l-1.852,1.092c-1.531,0.902-3.02,1.172-4.463,0.811C212.51,73.79,211.344,72.856,210.455,71.351z"
   id="path28"
   style="fill:#000000;fill-opacity:1;stroke:#000000;stroke-opacity:1;stroke-linejoin:round;fill-rule:nonzero" />
<path
   fill="#FFFFFF"
   d="M241.713,74.433l-25.127,9.535c-0.242,0.092-0.402,0.029-0.484-0.186l-0.213-0.562  c-0.082-0.215-0.002-0.367,0.238-0.459l25.127-9.535c0.242-0.092,0.402-0.029,0.484,0.186l0.213,0.562  C242.033,74.188,241.953,74.341,241.713,74.433z"
   id="path30"
   style="fill:#000000;fill-opacity:1;stroke:#000000;stroke-opacity:1;stroke-linejoin:round;fill-rule:nonzero" />
<path
   fill="#FFFFFF"
   d="M221.684,104.815l-2.697-12.791c-0.045-0.225,0.057-0.363,0.309-0.416l26.297-5.541  c0.254-0.055,0.404,0.031,0.451,0.256l2.693,12.791c0.055,0.252-0.031,0.402-0.256,0.449l-0.504,0.107  c-0.225,0.047-0.363-0.057-0.418-0.309l-2.42-11.486c-0.053-0.252-0.191-0.355-0.416-0.307l-10.814,2.277  c-0.223,0.049-0.309,0.197-0.256,0.449l2.191,10.395c0.053,0.252-0.033,0.402-0.258,0.449l-0.504,0.105  c-0.227,0.047-0.363-0.055-0.418-0.307l-2.189-10.393c-0.053-0.254-0.193-0.355-0.416-0.309l-11.361,2.395  c-0.225,0.047-0.311,0.197-0.256,0.449l2.42,11.486c0.053,0.252-0.033,0.402-0.256,0.451l-0.506,0.105  C221.875,105.171,221.736,105.069,221.684,104.815z"
   id="path32"
   style="fill:#000000;fill-opacity:1;stroke:#000000;stroke-opacity:1;stroke-linejoin:round;fill-rule:nonzero" />
<path
   fill="#FFFFFF"
   d="M222.447,113.144l0.008-0.604c0.004-0.229,0.135-0.342,0.393-0.338l26.873,0.414  c0.258,0.004,0.385,0.121,0.381,0.35l-0.148,9.674c-0.027,1.748-0.58,3.137-1.656,4.168c-1.076,1.029-2.504,1.531-4.279,1.504  l-4.301-0.066c-1.605-0.025-2.91-0.475-3.914-1.35c-1.004-0.877-1.596-2.047-1.773-3.512l-0.172-0.002l-11.26,5.115  c-0.26,0.141-0.389,0.08-0.385-0.178l0.012-0.773c0.004-0.229,0.137-0.414,0.396-0.553l11.346-5.072l0.121-7.867  c0.002-0.26-0.109-0.391-0.338-0.393l-10.922-0.168C222.57,113.489,222.443,113.372,222.447,113.144z M235.291,114.071l-0.129,8.34  c-0.021,1.434,0.377,2.545,1.197,3.33c0.818,0.787,1.959,1.191,3.422,1.215l4.213,0.064c1.461,0.021,2.613-0.348,3.457-1.107  c0.844-0.762,1.275-1.859,1.297-3.293l0.129-8.34c0.004-0.258-0.109-0.389-0.338-0.393l-12.898-0.197  C235.412,113.687,235.295,113.813,235.291,114.071z"
   id="path34"
   style="fill:#000000;fill-opacity:1;stroke:#000000;stroke-opacity:1;stroke-linejoin:round;fill-rule:nonzero" />
<path
   fill="#FFFFFF"
   d="M226.895,136.634l1.662,0.441c0.25,0.066,0.346,0.209,0.285,0.432l-0.154,0.582  c-0.059,0.221-0.213,0.299-0.463,0.232l-1.619-0.43c-1.414-0.377-2.621-0.297-3.623,0.236c-1.004,0.535-1.688,1.494-2.057,2.879  l-1.326,4.988c-0.369,1.385-0.25,2.559,0.354,3.52c0.605,0.963,1.613,1.631,3.025,2.006l2.078,0.553  c1.303,0.346,2.471,0.107,3.504-0.715c1.035-0.822,1.918-1.914,2.652-3.275c0.734-1.363,1.467-2.725,2.199-4.088  c0.734-1.361,1.639-2.449,2.715-3.26c1.076-0.812,2.307-1.033,3.691-0.664l2.492,0.662c1.719,0.457,2.955,1.328,3.713,2.611  c0.754,1.285,0.908,2.771,0.459,4.461l-1.326,4.986c-0.449,1.689-1.322,2.904-2.615,3.643c-1.295,0.738-2.801,0.879-4.518,0.424  l-1.248-0.332c-0.248-0.066-0.344-0.211-0.285-0.432l0.154-0.582c0.061-0.223,0.215-0.301,0.463-0.232l1.207,0.32  c1.412,0.375,2.619,0.297,3.621-0.238s1.688-1.494,2.057-2.879l1.326-4.986c0.369-1.387,0.25-2.559-0.354-3.521  c-0.605-0.961-1.613-1.631-3.027-2.006l-2.41-0.641c-2.049-0.545-3.928,0.824-5.629,4.107c-0.697,1.387-1.426,2.76-2.186,4.113  c-0.762,1.355-1.729,2.426-2.9,3.211c-1.174,0.785-2.508,0.979-4.004,0.582l-2.201-0.586c-1.719-0.457-2.955-1.328-3.713-2.611  c-0.756-1.283-0.908-2.771-0.459-4.461l1.326-4.986c0.449-1.689,1.32-2.904,2.615-3.643  C223.67,136.317,225.176,136.177,226.895,136.634z"
   id="path36"
   style="fill:#000000;fill-opacity:1;stroke:#000000;stroke-opacity:1;stroke-linejoin:round;fill-rule:nonzero" />
<path
   fill="#FFFFFF"
   d="M53.072,220.487l-0.512-0.318c-0.193-0.123-0.223-0.293-0.086-0.512l14.275-22.77  c0.139-0.219,0.303-0.268,0.498-0.145l8.234,5.16c1.48,0.93,2.383,2.121,2.705,3.576s0.014,2.934-0.932,4.439l-2.809,4.482  c-0.943,1.506-2.141,2.43-3.59,2.771c-1.451,0.344-2.918,0.051-4.398-0.877l-7.105-4.455c-0.217-0.137-0.387-0.107-0.51,0.086  l-5.275,8.416C53.43,220.562,53.266,220.61,53.072,220.487z M59.994,210.821l7.105,4.453c1.213,0.762,2.369,0.996,3.467,0.703  s2.033-1.059,2.811-2.299l2.764-4.408c0.777-1.238,1.059-2.416,0.844-3.531s-0.928-2.053-2.143-2.814l-7.105-4.455  c-0.219-0.137-0.387-0.107-0.51,0.086l-7.377,11.768C59.727,210.519,59.777,210.685,59.994,210.821z"
   id="path38"
   style="fill:#000000;fill-opacity:1;stroke:#000000;stroke-opacity:1;stroke-linejoin:round;fill-rule:nonzero" />
<path
   fill="#FFFFFF"
   d="M78.605,234.282l-0.57-0.193c-0.219-0.074-0.283-0.232-0.201-0.479l8.65-25.443  c0.084-0.244,0.234-0.33,0.451-0.256l9.16,3.115c1.654,0.562,2.807,1.514,3.457,2.855c0.648,1.34,0.688,2.852,0.115,4.535  l-1.383,4.07c-0.518,1.521-1.348,2.625-2.488,3.311c-1.143,0.688-2.438,0.891-3.887,0.609l-0.055,0.162l1.408,12.287  c0.053,0.291-0.043,0.395-0.287,0.311l-0.732-0.248c-0.219-0.074-0.354-0.256-0.404-0.547l-1.342-12.354l-7.449-2.533  c-0.244-0.084-0.404-0.018-0.479,0.199l-3.516,10.342C78.973,234.271,78.822,234.354,78.605,234.282z M83.436,222.345l7.898,2.686  c1.355,0.461,2.535,0.424,3.537-0.115c1-0.537,1.734-1.498,2.205-2.883l1.357-3.99c0.471-1.385,0.473-2.594,0.008-3.631  c-0.465-1.035-1.377-1.785-2.734-2.246l-7.898-2.686c-0.244-0.082-0.402-0.016-0.477,0.201l-4.15,12.213  C83.105,222.112,83.191,222.261,83.436,222.345z"
   id="path40"
   style="fill:#000000;fill-opacity:1;stroke:#000000;stroke-opacity:1;stroke-linejoin:round;fill-rule:nonzero" />
<path
   fill="#FFFFFF"
   d="M116.809,242.821l-5.354-0.471c-1.742-0.154-3.088-0.803-4.039-1.953c-0.949-1.146-1.346-2.605-1.189-4.377  l1.396-15.891c0.154-1.771,0.801-3.139,1.936-4.105c1.135-0.963,2.574-1.369,4.316-1.217l5.354,0.471  c1.742,0.152,3.088,0.803,4.037,1.951s1.348,2.607,1.191,4.379l-1.396,15.891c-0.156,1.771-0.801,3.139-1.936,4.104  S118.551,242.974,116.809,242.821z M111.561,241.151l5.354,0.471c1.428,0.125,2.564-0.191,3.408-0.953  c0.842-0.76,1.33-1.869,1.457-3.324l1.389-15.807c0.127-1.457-0.158-2.633-0.855-3.529c-0.697-0.895-1.762-1.406-3.189-1.531  l-5.354-0.471c-1.43-0.125-2.564,0.191-3.406,0.953c-0.846,0.76-1.332,1.869-1.459,3.324l-1.389,15.807  c-0.127,1.457,0.156,2.633,0.855,3.527C109.068,240.515,110.133,241.024,111.561,241.151z"
   id="path42"
   style="fill:#000000;fill-opacity:1;stroke:#000000;stroke-opacity:1;stroke-linejoin:round;fill-rule:nonzero" />
<path
   fill="#FFFFFF"
   d="M145.047,213.503l0.594-0.088c0.227-0.035,0.357,0.062,0.391,0.289l3.131,21.229  c0.26,1.758-0.053,3.238-0.932,4.439c-0.881,1.201-2.186,1.932-3.916,2.186l-4.254,0.627c-1.73,0.256-3.189-0.064-4.379-0.963  c-1.191-0.895-1.914-2.223-2.174-3.982l-0.502-3.402c-0.039-0.256,0.057-0.4,0.283-0.434l0.596-0.088  c0.227-0.033,0.359,0.078,0.396,0.334l0.494,3.359c0.215,1.447,0.764,2.525,1.652,3.234c0.887,0.711,2.039,0.959,3.457,0.75  l4.254-0.627c1.418-0.209,2.449-0.781,3.094-1.717s0.861-2.125,0.646-3.572l-3.117-21.143  C144.725,213.679,144.818,213.536,145.047,213.503z"
   id="path44"
   style="fill:#000000;fill-opacity:1;stroke:#000000;stroke-opacity:1;stroke-linejoin:round;fill-rule:nonzero" />
<path
   fill="#FFFFFF"
   d="M175.697,232.501l-12.227,4.627c-0.213,0.08-0.365,0-0.459-0.24l-9.512-25.135  c-0.092-0.242-0.029-0.402,0.184-0.484l12.227-4.627c0.24-0.092,0.4-0.029,0.482,0.184l0.184,0.484c0.082,0.215,0,0.367-0.24,0.457  l-10.98,4.156c-0.24,0.092-0.32,0.244-0.238,0.459l3.912,10.336c0.08,0.215,0.242,0.275,0.484,0.184l9.932-3.76  c0.242-0.092,0.404-0.029,0.484,0.186l0.184,0.482c0.08,0.215,0,0.367-0.24,0.459l-9.936,3.76c-0.24,0.09-0.32,0.244-0.238,0.459  l4.109,10.857c0.08,0.215,0.242,0.275,0.484,0.186l10.979-4.156c0.24-0.092,0.402-0.029,0.482,0.186l0.184,0.482  C176.02,232.257,175.938,232.409,175.697,232.501z"
   id="path46"
   style="fill:#000000;fill-opacity:1;stroke:#000000;stroke-opacity:1;stroke-linejoin:round;fill-rule:nonzero" />
<path
   fill="#FFFFFF"
   d="M196.99,220.278l-4.65,3.1c-1.455,0.971-2.912,1.303-4.371,1.002c-1.459-0.303-2.682-1.193-3.666-2.672  l-8.85-13.275c-0.986-1.479-1.336-2.949-1.055-4.412c0.283-1.463,1.152-2.68,2.605-3.65l4.652-3.1  c1.455-0.969,2.912-1.303,4.371-1.002c1.459,0.303,2.682,1.193,3.668,2.672l1.191,1.789c0.143,0.215,0.119,0.387-0.07,0.514  l-0.502,0.334c-0.191,0.127-0.357,0.082-0.5-0.131l-1.17-1.754c-0.811-1.217-1.768-1.955-2.875-2.219  c-1.104-0.262-2.252,0.004-3.445,0.799l-4.652,3.1c-1.191,0.797-1.879,1.754-2.062,2.875s0.131,2.289,0.943,3.506l8.799,13.203  c0.811,1.217,1.77,1.957,2.873,2.219c1.105,0.262,2.254-0.004,3.447-0.799l4.65-3.1c1.193-0.795,1.883-1.754,2.064-2.875  c0.184-1.121-0.131-2.289-0.941-3.506l-1.168-1.754c-0.145-0.215-0.121-0.385,0.072-0.512l0.5-0.334  c0.189-0.127,0.357-0.084,0.5,0.131l1.193,1.789c0.984,1.479,1.336,2.949,1.055,4.412  C199.314,218.091,198.445,219.308,196.99,220.278z"
   id="path48"
   style="fill:#000000;fill-opacity:1;stroke:#000000;stroke-opacity:1;stroke-linejoin:round;fill-rule:nonzero" />
<path
   fill="#FFFFFF"
   d="M214.988,204.825l-0.42,0.432c-0.158,0.166-0.33,0.158-0.516-0.021l-18.459-17.902  c-0.164-0.158-0.336-0.146-0.518,0.039l-4.609,4.754c-0.18,0.186-0.352,0.197-0.516,0.039l-0.371-0.361  c-0.164-0.158-0.158-0.332,0.021-0.518l10.658-10.988c0.18-0.186,0.352-0.197,0.518-0.037l0.369,0.357  c0.166,0.162,0.158,0.334-0.023,0.518l-4.609,4.754c-0.18,0.186-0.186,0.357-0.021,0.518l18.459,17.902  C215.137,204.489,215.148,204.661,214.988,204.825z"
   id="path50"
   style="fill:#000000;fill-opacity:1;stroke:#000000;stroke-opacity:1;stroke-linejoin:round;fill-rule:nonzero" />
<path
   fill="#FFFFFF"
   d="M150.164,169.972v-6.299h4.555v0.744h-3.723v1.928h3.486v0.74h-3.486v2.145h3.867v0.742H150.164z"
   id="path52"
   style="fill:#000000;fill-opacity:1;stroke:#000000;stroke-opacity:1;stroke-linejoin:round;fill-rule:nonzero;stroke-width:0.4;stroke-miterlimit:4;stroke-dasharray:none" />
<path
   fill="#FFFFFF"
   d="M156.016,169.972v-6.299h2.375c0.42,0,0.738,0.02,0.959,0.061c0.309,0.051,0.568,0.15,0.777,0.295  s0.377,0.346,0.506,0.607c0.127,0.26,0.191,0.547,0.191,0.859c0,0.535-0.172,0.988-0.512,1.359  c-0.342,0.371-0.957,0.557-1.848,0.557h-1.615v2.561H156.016z M156.85,166.667h1.627c0.539,0,0.922-0.1,1.148-0.301  c0.227-0.199,0.34-0.482,0.34-0.846c0-0.264-0.066-0.488-0.201-0.676c-0.133-0.188-0.309-0.312-0.525-0.373  c-0.141-0.037-0.4-0.055-0.777-0.055h-1.611V166.667z"
   id="path54"
   style="fill:#000000;fill-opacity:1;stroke:#000000;stroke-opacity:1;stroke-linejoin:round;fill-rule:nonzero;stroke-width:0.4;stroke-miterlimit:4;stroke-dasharray:none" />
<path
   fill="#FFFFFF"
   d="M161.928,169.972v-6.299h4.25v0.744h-3.416v1.949h2.955v0.744h-2.955v2.861H161.928z"
   id="path56"
   style="fill:#000000;fill-opacity:1;stroke:#000000;stroke-opacity:1;stroke-linejoin:round;fill-rule:nonzero;stroke-width:0.4;stroke-miterlimit:4;stroke-dasharray:none" />
<path
   fill="#FFFFFF"
   d="M167.225,169.972v-6.299h0.834v5.557h3.102v0.742H167.225z"
   id="path58"
   style="fill:#000000;fill-opacity:1;stroke:#000000;stroke-opacity:1;stroke-linejoin:round;fill-rule:nonzero;stroke-width:0.4;stroke-miterlimit:4;stroke-dasharray:none" />
<path
   fill="#FFFFFF"
   d="M83.008,181.972v-6.299h0.855l3.309,4.945v-4.945h0.799v6.299h-0.855l-3.309-4.949v4.949H83.008z"
   id="path60"
   style="fill:#000000;fill-opacity:1;stroke:#000000;stroke-opacity:1;stroke-linejoin:round;fill-rule:nonzero;stroke-width:0.4;stroke-miterlimit:4;stroke-dasharray:none" />
<path
   fill="#FFFFFF"
   d="M89.119,178.903c0-1.045,0.279-1.863,0.842-2.455c0.561-0.592,1.285-0.887,2.174-0.887  c0.582,0,1.105,0.139,1.572,0.416c0.467,0.279,0.822,0.666,1.068,1.162c0.244,0.498,0.367,1.061,0.367,1.691  c0,0.639-0.129,1.211-0.387,1.715s-0.623,0.885-1.096,1.145s-0.982,0.389-1.529,0.389c-0.594,0-1.123-0.143-1.59-0.43  c-0.467-0.285-0.82-0.678-1.062-1.172C89.238,179.981,89.119,179.458,89.119,178.903z M89.979,178.917  c0,0.76,0.203,1.357,0.611,1.795c0.408,0.436,0.92,0.654,1.537,0.654c0.627,0,1.143-0.221,1.549-0.662  c0.404-0.441,0.607-1.066,0.607-1.877c0-0.514-0.086-0.961-0.26-1.344c-0.174-0.381-0.428-0.678-0.762-0.889  c-0.332-0.211-0.707-0.316-1.123-0.316c-0.59,0-1.098,0.203-1.523,0.609C90.189,177.292,89.979,177.97,89.979,178.917z"
   id="path62"
   style="fill:#000000;fill-opacity:1;stroke:#000000;stroke-opacity:1;stroke-linejoin:round;fill-rule:nonzero;stroke-width:0.4;stroke-miterlimit:4;stroke-dasharray:none" />
<path
   fill="#FFFFFF"
   d="M96.191,181.972v-6.299h1.254l1.49,4.461c0.139,0.414,0.238,0.725,0.301,0.932  c0.072-0.229,0.184-0.566,0.336-1.01l1.508-4.383h1.121v6.299h-0.803V176.7l-1.83,5.271h-0.752l-1.822-5.361v5.361H96.191z"
   id="path64"
   style="fill:#000000;fill-opacity:1;stroke:#000000;stroke-opacity:1;stroke-linejoin:round;fill-rule:nonzero;stroke-width:0.4;stroke-miterlimit:4;stroke-dasharray:none" />
<path
   fill="#FFFFFF"
   d="M103.688,181.972v-6.299h0.834v6.299H103.688z"
   id="path66"
   style="fill:#000000;fill-opacity:1;stroke:#000000;stroke-opacity:1;stroke-linejoin:round;fill-rule:nonzero;stroke-width:0.4;stroke-miterlimit:4;stroke-dasharray:none" />
<path
   fill="#FFFFFF"
   d="M105.709,179.948l0.785-0.068c0.037,0.314,0.125,0.574,0.26,0.775c0.137,0.201,0.348,0.365,0.635,0.49  c0.285,0.125,0.607,0.186,0.967,0.186c0.318,0,0.598-0.047,0.842-0.141c0.244-0.096,0.424-0.225,0.543-0.389  c0.119-0.166,0.18-0.346,0.18-0.539c0-0.199-0.059-0.371-0.172-0.518c-0.115-0.148-0.305-0.271-0.568-0.373  c-0.168-0.064-0.543-0.168-1.121-0.307s-0.984-0.27-1.217-0.393c-0.301-0.158-0.523-0.354-0.672-0.588  c-0.146-0.232-0.221-0.494-0.221-0.783c0-0.318,0.09-0.615,0.27-0.893c0.182-0.275,0.445-0.486,0.791-0.629  c0.348-0.143,0.732-0.215,1.156-0.215c0.467,0,0.879,0.076,1.236,0.227c0.355,0.15,0.631,0.371,0.822,0.662  c0.191,0.293,0.295,0.623,0.309,0.994l-0.799,0.059c-0.043-0.396-0.188-0.697-0.436-0.902c-0.248-0.203-0.615-0.305-1.098-0.305  c-0.506,0-0.873,0.094-1.104,0.277c-0.23,0.186-0.346,0.408-0.346,0.668c0,0.227,0.082,0.412,0.246,0.559  c0.16,0.146,0.578,0.297,1.256,0.449c0.678,0.154,1.143,0.287,1.395,0.402c0.367,0.168,0.637,0.383,0.812,0.643  c0.174,0.26,0.262,0.557,0.262,0.895c0,0.336-0.096,0.652-0.287,0.949c-0.193,0.295-0.469,0.525-0.828,0.691  c-0.359,0.164-0.764,0.246-1.213,0.246c-0.57,0-1.049-0.082-1.434-0.248s-0.688-0.416-0.906-0.75S105.719,180.37,105.709,179.948z"
   id="path68"
   style="fill:#000000;fill-opacity:1;stroke:#000000;stroke-opacity:1;stroke-linejoin:round;fill-rule:nonzero;stroke-width:0.4;stroke-miterlimit:4;stroke-dasharray:none" />
<path
   fill="#FFFFFF"
   d="M114.35,181.972v-6.299h4.25v0.744h-3.416v1.949h2.955v0.744h-2.955v2.861H114.35z"
   id="path70"
   style="fill:#000000;fill-opacity:1;stroke:#000000;stroke-opacity:1;stroke-linejoin:round;fill-rule:nonzero;stroke-width:0.4;stroke-miterlimit:4;stroke-dasharray:none" />
<path
   fill="#FFFFFF"
   d="M119.428,178.903c0-1.045,0.281-1.863,0.842-2.455c0.562-0.592,1.287-0.887,2.174-0.887  c0.582,0,1.107,0.139,1.574,0.416c0.467,0.279,0.822,0.666,1.066,1.162c0.246,0.498,0.367,1.061,0.367,1.691  c0,0.639-0.129,1.211-0.387,1.715s-0.623,0.885-1.096,1.145s-0.982,0.389-1.529,0.389c-0.592,0-1.123-0.143-1.59-0.43  c-0.467-0.285-0.82-0.678-1.061-1.172C119.549,179.981,119.428,179.458,119.428,178.903z M120.287,178.917  c0,0.76,0.205,1.357,0.613,1.795c0.408,0.436,0.92,0.654,1.535,0.654c0.627,0,1.145-0.221,1.549-0.662  c0.406-0.441,0.607-1.066,0.607-1.877c0-0.514-0.086-0.961-0.26-1.344c-0.172-0.381-0.426-0.678-0.76-0.889  s-0.709-0.316-1.123-0.316c-0.592,0-1.098,0.203-1.523,0.609C120.5,177.292,120.287,177.97,120.287,178.917z"
   id="path72"
   style="fill:#000000;fill-opacity:1;stroke:#000000;stroke-opacity:1;stroke-linejoin:round;fill-rule:nonzero;stroke-width:0.4;stroke-miterlimit:4;stroke-dasharray:none" />
<path
   fill="#FFFFFF"
   d="M130.66,175.673h0.834v3.639c0,0.635-0.072,1.137-0.215,1.51c-0.145,0.371-0.402,0.674-0.777,0.908  c-0.373,0.234-0.863,0.35-1.471,0.35c-0.59,0-1.072-0.102-1.447-0.305c-0.377-0.203-0.645-0.498-0.805-0.883s-0.24-0.912-0.24-1.58  v-3.639h0.834v3.635c0,0.547,0.051,0.951,0.152,1.211c0.102,0.258,0.275,0.459,0.523,0.598c0.248,0.141,0.551,0.211,0.91,0.211  c0.611,0,1.049-0.139,1.311-0.416c0.26-0.277,0.391-0.812,0.391-1.604V175.673z"
   id="path74"
   style="fill:#000000;fill-opacity:1;stroke:#000000;stroke-opacity:1;stroke-linejoin:round;fill-rule:nonzero;stroke-width:0.4;stroke-miterlimit:4;stroke-dasharray:none" />
<path
   fill="#FFFFFF"
   d="M132.873,181.972v-6.299h0.855l3.309,4.945v-4.945h0.799v6.299h-0.855l-3.309-4.949v4.949H132.873z"
   id="path76"
   style="fill:#000000;fill-opacity:1;stroke:#000000;stroke-opacity:1;stroke-linejoin:round;fill-rule:nonzero;stroke-width:0.4;stroke-miterlimit:4;stroke-dasharray:none" />
<path
   fill="#FFFFFF"
   d="M139.236,181.972v-6.299h2.17c0.49,0,0.865,0.029,1.123,0.09c0.359,0.084,0.668,0.234,0.924,0.451  c0.332,0.281,0.58,0.641,0.744,1.076c0.166,0.438,0.248,0.938,0.248,1.498c0,0.479-0.057,0.902-0.168,1.271s-0.256,0.676-0.43,0.918  c-0.176,0.242-0.365,0.432-0.574,0.572c-0.207,0.139-0.457,0.244-0.752,0.314c-0.293,0.072-0.631,0.107-1.012,0.107H139.236z   M140.07,181.229h1.346c0.414,0,0.74-0.039,0.977-0.117c0.236-0.076,0.426-0.186,0.566-0.326c0.197-0.197,0.352-0.463,0.461-0.797  s0.166-0.738,0.166-1.215c0-0.658-0.109-1.164-0.324-1.518c-0.217-0.354-0.48-0.592-0.789-0.711  c-0.223-0.086-0.584-0.129-1.078-0.129h-1.324V181.229z"
   id="path78"
   style="fill:#000000;fill-opacity:1;stroke:#000000;stroke-opacity:1;stroke-linejoin:round;fill-rule:nonzero;stroke-width:0.4;stroke-miterlimit:4;stroke-dasharray:none" />
<path
   fill="#FFFFFF"
   d="M144.9,181.972l2.42-6.299h0.898l2.578,6.299h-0.951l-0.734-1.908h-2.633l-0.693,1.908H144.9z   M146.719,179.386h2.135l-0.656-1.744c-0.201-0.531-0.35-0.967-0.447-1.307c-0.08,0.404-0.193,0.805-0.34,1.203L146.719,179.386z"
   id="path80"
   style="fill:#000000;fill-opacity:1;stroke:#000000;stroke-opacity:1;stroke-linejoin:round;fill-rule:nonzero;stroke-width:0.4;stroke-miterlimit:4;stroke-dasharray:none" />
<path
   fill="#FFFFFF"
   d="M152.41,181.972v-5.555h-2.074v-0.744h4.992v0.744h-2.084v5.555H152.41z"
   id="path82"
   style="fill:#000000;fill-opacity:1;stroke:#000000;stroke-opacity:1;stroke-linejoin:round;fill-rule:nonzero;stroke-width:0.4;stroke-miterlimit:4;stroke-dasharray:none" />
<path
   fill="#FFFFFF"
   d="M156.324,181.972v-6.299h0.834v6.299H156.324z"
   id="path84"
   style="fill:#000000;fill-opacity:1;stroke:#000000;stroke-opacity:1;stroke-linejoin:round;fill-rule:nonzero;stroke-width:0.4;stroke-miterlimit:4;stroke-dasharray:none" />
<path
   fill="#FFFFFF"
   d="M158.375,178.903c0-1.045,0.281-1.863,0.842-2.455c0.562-0.592,1.287-0.887,2.174-0.887  c0.582,0,1.107,0.139,1.574,0.416c0.467,0.279,0.822,0.666,1.066,1.162c0.246,0.498,0.367,1.061,0.367,1.691  c0,0.639-0.129,1.211-0.387,1.715s-0.623,0.885-1.096,1.145s-0.982,0.389-1.529,0.389c-0.592,0-1.123-0.143-1.59-0.43  c-0.467-0.285-0.82-0.678-1.061-1.172C158.496,179.981,158.375,179.458,158.375,178.903z M159.234,178.917  c0,0.76,0.205,1.357,0.613,1.795c0.408,0.436,0.92,0.654,1.535,0.654c0.627,0,1.145-0.221,1.549-0.662  c0.406-0.441,0.607-1.066,0.607-1.877c0-0.514-0.086-0.961-0.26-1.344c-0.172-0.381-0.426-0.678-0.76-0.889  s-0.709-0.316-1.123-0.316c-0.592,0-1.098,0.203-1.523,0.609C159.447,177.292,159.234,177.97,159.234,178.917z"
   id="path86"
   style="fill:#000000;fill-opacity:1;stroke:#000000;stroke-opacity:1;stroke-linejoin:round;fill-rule:nonzero;stroke-width:0.4;stroke-miterlimit:4;stroke-dasharray:none" />
<path
   fill="#FFFFFF"
   d="M165.465,181.972v-6.299h0.855l3.309,4.945v-4.945h0.799v6.299h-0.855l-3.309-4.949v4.949H165.465z"
   id="path88"
   style="fill:#000000;fill-opacity:1;stroke:#000000;stroke-opacity:1;stroke-linejoin:round;fill-rule:nonzero;stroke-width:0.4;stroke-miterlimit:4;stroke-dasharray:none" />
<path
   fill="#FFFFFF"
   d="M122.449,41.003l30.5,49.559l-11.83-10.93c0,0-7.15,9.281-13.07,15.52c-0.721,0.762-1.381,1.461-2.01,2.07  c-0.23-0.43-0.48-0.879-0.75-1.34l-12.951-28.43l-14.52,9.961L122.449,41.003z"
   id="path90"
   style="fill:#000000;fill-opacity:1;stroke:#000000;stroke-opacity:1;stroke-linejoin:round;fill-rule:nonzero" />
<line
   fill="none"
   stroke="#FFFFFF"
   stroke-width="0.9335"
   stroke-miterlimit="10"
   x1="152.959"
   y1="90.573"
   x2="197.139"
   y2="162.362"
   id="line92"
   style="fill:#000000;fill-opacity:0;stroke:#000000;stroke-opacity:1;stroke-linejoin:round;fill-rule:nonzero" />
<polyline
   fill="none"
   stroke="#FFFFFF"
   stroke-width="0.9335"
   stroke-miterlimit="10"
   points="58.969,134.823 97.818,77.413   122.449,41.003 152.949,90.562 "
   id="polyline94"
   style="fill:#000000;fill-opacity:0;stroke:#000000;stroke-opacity:1;stroke-linejoin:round;fill-rule:nonzero" />
<path
   fill="none"
   stroke="#FFFFFF"
   stroke-width="0.9335"
   stroke-miterlimit="10"
   d="M92.258,135.183  c-6.01,10.859-4.809,26.25-4.809,26.25"
   id="path96"
   style="fill:#000000;fill-opacity:0;stroke:#000000;stroke-opacity:1;stroke-linejoin:round;fill-rule:nonzero" />
<path
   fill="none"
   stroke="#FFFFFF"
   stroke-width="0.9335"
   stroke-miterlimit="10"
   d="M97.818,77.413l14.52-9.961l12.951,28.43  c0.27,0.461,0.52,0.91,0.75,1.34c1.66,3.141,2.289,5.721,2.119,7.93c-0.15,2.182-1.09,3.98-2.58,5.58  c-1.379,1.49-3.24,2.801-5.41,4.051c-1.99,1.16-4.229,2.279-6.58,3.439c-1.92,0.961-3.92,1.951-5.898,3.041  c-2.301,1.27-4.602,2.67-6.75,4.279c-1.791,1.34-3.48,2.83-5,4.52c-1.182,1.301-2.262,2.73-3.201,4.301  c-0.16,0.27-0.32,0.551-0.471,0.82"
   id="path98"
   style="fill:#000000;fill-opacity:0;stroke:#000000;stroke-opacity:1;stroke-linejoin:round;fill-rule:nonzero" />
<path
   fill="none"
   stroke="#FFFFFF"
   stroke-width="0.9335"
   stroke-miterlimit="10"
   d="M107.658,141.083  c-2.76,2.93-6.33,5.289-6.33,5.289"
   id="path100"
   style="fill:#000000;fill-opacity:0;stroke:#000000;stroke-opacity:1;stroke-linejoin:round;fill-rule:nonzero" />
<path
   fill="none"
   stroke="#FFFFFF"
   stroke-width="0.9335"
   stroke-miterlimit="10"
   d="M152.959,90.573l-0.01-0.012l-11.83-10.93  c0,0-7.15,9.281-13.07,15.52c-0.721,0.762-1.381,1.461-2.01,2.07c-1.9,1.91-3.49,3.16-5.521,3.84  c-1.229,0.42-2.629,0.621-4.369,0.621c-2.141,0-4.959-0.57-7.49-0.061c-2.08,0.4-3.969,1.52-5.15,4.26  c-0.049,0.09-0.08,0.18-0.119,0.27c-0.9,2.25-0.791,4.41-0.131,6.551c0.871,2.84,2.711,5.641,4.432,8.561  c1.539,2.609,2.979,5.311,3.549,8.219c0.391,2,0.371,4.092-0.32,6.32c-0.129,0.451-0.299,0.9-0.49,1.361  c-0.549,1.318-1.59,2.67-2.76,3.92"
   id="path102"
   style="fill:#000000;fill-opacity:0;stroke:#000000;stroke-opacity:1;stroke-linejoin:round;fill-rule:nonzero" />
<line
   fill="none"
   stroke="#FFFFFF"
   stroke-width="0.9335"
   stroke-miterlimit="10"
   x1="100.939"
   y1="125.542"
   x2="111.238"
   y2="129.481"
   id="line104"
   style="fill:#000000;fill-opacity:0;stroke:#000000;stroke-opacity:1;stroke-linejoin:round;fill-rule:nonzero" />
<polyline
   fill="none"
   stroke="#FFFFFF"
   stroke-width="0.9335"
   stroke-miterlimit="10"
   points="95.939,130.062 110.918,135.802   110.928,135.802 "
   id="polyline106"
   style="fill:#000000;fill-opacity:0;stroke:#000000;stroke-opacity:1;stroke-linejoin:round;fill-rule:nonzero" />
<polyline
   fill="none"
   stroke="#FFFFFF"
   stroke-width="0.9335"
   stroke-miterlimit="10"
   points="92.258,135.183 92.268,135.183   107.658,141.083 107.668,141.083 "
   id="polyline108"
   style="fill:#000000;fill-opacity:0;stroke:#000000;stroke-opacity:1;stroke-linejoin:round;fill-rule:nonzero" />
<line
   fill="none"
   stroke="#FFFFFF"
   stroke-width="0.9335"
   stroke-miterlimit="10"
   x1="103.258"
   y1="112.702"
   x2="113.588"
   y2="118.222"
   id="line110"
   style="fill:#000000;fill-opacity:0;stroke:#000000;stroke-opacity:1;stroke-linejoin:round;fill-rule:nonzero" />
<polyline
   fill="none"
   stroke="#FFFFFF"
   stroke-width="0.9335"
   stroke-miterlimit="10"
   points="103.408,105.833 103.508,105.882   120.168,114.782 "
   id="polyline112"
   style="fill:#000000;fill-opacity:0;stroke:#000000;stroke-opacity:1;stroke-linejoin:round;fill-rule:nonzero" />
<line
   fill="none"
   stroke="#FFFFFF"
   stroke-width="0.9335"
   stroke-miterlimit="10"
   x1="108.668"
   y1="101.683"
   x2="125.578"
   y2="110.731"
   id="line114"
   style="fill:#000000;fill-opacity:0;stroke:#000000;stroke-opacity:1;stroke-linejoin:round;fill-rule:nonzero" />
<polyline
   fill="none"
   stroke="#FFFFFF"
   stroke-width="0.9335"
   stroke-miterlimit="10"
   points="120.518,101.073 128.158,105.151   128.189,105.173 "
   id="polyline116"
   style="fill:#000000;fill-opacity:0;stroke:#000000;stroke-opacity:1;stroke-linejoin:round;fill-rule:nonzero" />
</svg>
